<?xml version="1.0" encoding="UTF-8"?><svg id="Layer_1" xmlns="http://www.w3.org/2000/svg" viewBox="0 0 340.02 73.34"><defs><style>.cls-1{fill:#007ec6;}.cls-2{fill:#fff;}.cls-3{fill:#263f78;}</style></defs><g><circle class="cls-2" cx="36.5" cy="36.69" r="36.5"/><path class="cls-1" d="M69.33,20.7c.07,0,4.52,8.86,3.7,18.28h0c-.43,15.83-14.42,33.78-35.26,34.36l-2.91-.06C13.38,72.22-.07,54,.01,37.53H.01c-.09-3.64,.37-7.27,1.36-10.77l1.56,.43c5.51,2.08,11.44,18.17,30.75,19.08,.84,0,2.45,.08,2.44,.08-1.25,1.25-8.36,4.18-11.58,5,.84-.2-.07,0,0,0h0c7.77,4.81,15.53-4.45,25.61-5.81l3.09-.18c-.59-1.86-3.25-1.7-3.5-1.68-7,.69-5.23-.11-5.45,0,10.64-3.45,16.87-12.04,24.58-22.48l.46-.5Z"/><path class="cls-3" d="M53.7,4.33C48.58,1.52,42.84,.03,37,0,16.07,.08,6.82,15.41,6.82,15.41c4.63,2.27,9.46,9.11,9.53,9.21,5.19,7.3,12.41,18.58,21.78,18.79,3,.07,5-1.72,7.27-3.93,8.31-8,9.44-22.91,20.09-25-3.1-4.24-7.14-7.71-11.79-10.15Z"/><path class="cls-2" d="M46.06,14.41c-1,0-1.81,.81-1.81,1.81h0v7.8h2.06v-3.91h2v3.86h2.06v-7.8c-.03-.98-.84-1.77-1.82-1.76h-2.49Z"/><path class="cls-3" d="M46.72,16.01h1.21c.23,0,.42,.19,.42,.42v2h-2v-2.02c0-.21,.17-.38,.37-.4Z"/><path class="cls-2" d="M38.19,14.41c-1,0-1.81,.81-1.81,1.81h0v7.8h2.06v-3.91h2v3.86h2.06v-7.8c-.03-.98-.84-1.77-1.82-1.76h-2.49Z"/><path class="cls-3" d="M38.86,16.01h1.16c.23,0,.42,.19,.42,.42v2h-2v-2.02c.01-.22,.2-.4,.42-.4Z"/><rect class="cls-2" x="28.51" y="14.35" width="6.11" height="9.61" rx="1.81" ry="1.81"/><rect class="cls-3" x="30.56" y="16" width="2" height="6.31" rx=".42" ry=".42"/><path class="cls-2" d="M20.64,14.41v9.61h2.06v-7.61c0-.23,.18-.41,.41-.42h1.16c.23,0,.42,.19,.42,.42h0v7.54h2.06v-7.8c-.04-.98-.84-1.75-1.82-1.74h-4.29Z"/></g><g><path d="M104.44,23.16h-2.68l-5.83-9.75-.44-.73-.42-.71v11.19h-2.21V7.83h3.07l5.37,9,1,1.65V7.83h2.18l-.04,15.33Z"/><path d="M116.79,23.16h-2.44c-.23-.74-.36-1.51-.39-2.29-.56,1.61-2.13,2.65-3.84,2.54-1,.04-1.98-.32-2.72-1-.67-.66-1.03-1.56-1-2.5,0-2.61,2.29-3.91,6.86-3.91h.67v-.85c0-1.17-.8-1.76-2.4-1.76s-2.47,.59-2.6,1.76l-2.18-.33c.12-.95,.66-1.8,1.46-2.33,1.11-.68,2.41-1,3.71-.92,.72-.02,1.45,.06,2.15,.22,.52,.13,1,.38,1.4,.74,.35,.31,.62,.69,.79,1.13,.18,.67,.25,1.37,.22,2.07v5.12c0,.78,.1,1.56,.31,2.31Zm-2.86-5.75c-3.33,0-5,.79-5,2.37,0,.46,.17,.89,.5,1.21,.42,.36,.96,.54,1.51,.5,.84,.06,1.66-.29,2.21-.93,.51-.6,.79-1.36,.78-2.15v-1Z"/><path d="M124.2,21.16v2c-.58,.14-1.17,.23-1.77,.25-.62,.02-1.22-.12-1.77-.41-.47-.25-.85-.64-1.08-1.12-.27-.7-.38-1.45-.34-2.2v-5.87h-1.42v-2h1.56l.24-3,2.1-.19v3.14h2.28v2h-2.28v5.54c-.06,.52,.08,1.03,.39,1.45,.42,.31,.95,.45,1.47,.39l.62,.02Z"/><path d="M128.33,10.49h-2.56v-2.66h2.56v2.66Zm0,12.67h-2.56V11.82h2.56v11.34Z"/><path d="M135.27,23.41c-1.5,.08-2.95-.6-3.84-1.81-.89-1.21-1.35-2.69-1.32-4.19-.05-1.53,.47-3.03,1.47-4.19,.97-1.11,2.39-1.73,3.87-1.67,1.43-.04,2.8,.56,3.75,1.63,1,1.18,1.52,2.69,1.45,4.23,.08,1.58-.47,3.13-1.52,4.32-.98,1.1-2.39,1.72-3.86,1.68Zm.09-2.11c1.71-.01,2.57-1.31,2.57-3.89,.05-.96-.17-1.91-.62-2.75-.4-.66-1.13-1.05-1.9-1-.8-.07-1.57,.32-2,1-.46,.84-.69,1.8-.64,2.76-.06,.99,.17,1.98,.68,2.83,.4,.66,1.13,1.06,1.91,1.03v.02Z"/><path d="M151.81,23.16h-2.56v-7.09c.04-.61-.14-1.21-.52-1.69-.31-.36-.77-.57-1.25-.57-.69,.01-1.33,.33-1.75,.88-.55,.76-.82,1.7-.75,2.64v5.83h-2.56V11.82h2.34v2.59c.81-1.91,1.96-2.86,3.44-2.86,.94-.02,1.86,.31,2.56,.94,.81,.9,1.19,2.11,1.06,3.31v7.36Z"/><path d="M164.01,23.16h-2.44c-.23-.74-.36-1.51-.39-2.29-.56,1.61-2.13,2.65-3.84,2.54-1,.04-1.98-.32-2.72-1-.67-.66-1.03-1.56-1-2.5,0-2.61,2.29-3.91,6.86-3.91h.73v-.85c0-1.17-.8-1.76-2.4-1.76s-2.48,.59-2.65,1.76l-2.23-.32c.12-.95,.66-1.8,1.46-2.33,1.11-.68,2.41-1,3.71-.92,.72-.02,1.45,.06,2.15,.22,.52,.13,1,.38,1.4,.74,.35,.31,.62,.69,.79,1.13,.18,.67,.25,1.37,.22,2.07v5.12c0,.78,.13,1.55,.35,2.3Zm-2.83-5.75c-3.33,0-5,.79-5,2.37,0,.46,.17,.89,.5,1.21,.42,.36,.96,.54,1.51,.5,.84,.06,1.66-.29,2.21-.93,.49-.59,.76-1.34,.75-2.11l.03-1.04Z"/><path d="M168.37,23.16h-2.56V7.83h2.56v15.33Z"/><path d="M185.59,17.84l2.56,.28c-.12,1.44-.75,2.78-1.78,3.79-1.08,1.01-2.52,1.55-4,1.49-1.24,.06-2.45-.31-3.44-1.06-.91-.76-1.6-1.75-2-2.86-.49-1.28-.73-2.63-.71-4-.09-2.03,.49-4.04,1.66-5.7,2.02-2.52,5.7-2.93,8.22-.91,.05,.04,.1,.08,.15,.12,1.08,1.07,1.75,2.49,1.91,4l-2.56,.27c-.47-2.31-1.51-3.47-3.12-3.47-1.01-.02-1.94,.54-2.41,1.44-.65,1.29-.94,2.74-.86,4.18-.1,1.46,.22,2.92,.92,4.21,.5,.88,1.43,1.42,2.44,1.42,.81,0,1.57-.37,2.07-1,.55-.61,.88-1.38,.95-2.2Z"/><path d="M196.82,19.54l2.31,.31c-.28,1.02-.9,1.92-1.74,2.56-.95,.69-2.1,1.04-3.27,1-1.44,.06-2.83-.52-3.8-1.58-1-1.21-1.49-2.75-1.39-4.31-.06-1.55,.46-3.07,1.45-4.26,.98-1.13,2.43-1.75,3.93-1.68,1.44-.08,2.84,.54,3.75,1.66,.92,1.23,1.39,2.74,1.32,4.27v.29h-7.78c-.02,.62,.06,1.25,.22,1.85,.16,.48,.46,.9,.87,1.21,1.23,.88,2.94,.6,3.82-.62,.16-.22,.28-.45,.37-.71h-.06Zm-.16-3.38c.02-.74-.24-1.45-.74-2-.94-.99-2.51-1.04-3.51-.09-.01,.01-.03,.03-.04,.04-.5,.55-.79,1.26-.83,2l5.12,.05Z"/><path d="M210.49,23.16h-2.56v-7.09c.05-.61-.14-1.21-.52-1.69-.31-.37-.77-.57-1.25-.57-.69,.01-1.33,.33-1.75,.88-.55,.76-.82,1.7-.75,2.64v5.83h-2.56V11.82h2.34v2.59c.81-1.91,1.96-2.86,3.44-2.86,.94-.02,1.86,.31,2.56,.94,.81,.9,1.19,2.11,1.06,3.31v7.36Z"/><path d="M218.24,21.16v2c-.58,.14-1.18,.23-1.78,.25-.62,.02-1.22-.12-1.77-.41-.47-.25-.85-.64-1.08-1.12-.27-.7-.38-1.45-.34-2.2v-5.87h-1.42v-2h1.56l.24-3,2.1-.19v3.14h2.28v2h-2.28v5.54c-.06,.52,.08,1.03,.39,1.45,.42,.31,.95,.45,1.47,.39l.63,.02Z"/><path d="M226.7,19.54l2.31,.31c-.29,1.02-.9,1.92-1.75,2.56-.95,.69-2.1,1.04-3.27,1-1.44,.06-2.83-.52-3.8-1.58-1.01-1.19-1.52-2.73-1.44-4.29-.06-1.55,.46-3.07,1.45-4.26,.98-1.13,2.43-1.75,3.93-1.68,1.46-.1,2.87,.51,3.8,1.64,.92,1.23,1.39,2.74,1.32,4.27v.29h-7.82c-.02,.62,.06,1.25,.22,1.85,.16,.48,.46,.9,.87,1.21,1.23,.88,2.94,.6,3.82-.62,.16-.22,.28-.45,.37-.71h0Zm-.16-3.38c.02-.74-.24-1.45-.74-2-.94-.99-2.51-1.04-3.51-.09-.01,.01-.03,.03-.04,.04-.5,.55-.79,1.26-.83,2l5.12,.05Z"/><path d="M233.54,23.16h-2.61V11.82h2.31v2.71c.23-.88,.7-1.68,1.36-2.31,.48-.45,1.11-.71,1.77-.73h.34v2.75c-1.04-.14-2.05,.35-2.59,1.25-.4,.74-.61,1.57-.63,2.41l.05,5.26Z"/><path d="M236.93,20.55l2.4-.46c.41,.95,1.4,1.51,2.43,1.38,1.59,0,2.38-.47,2.38-1.4,0-.29-.13-.57-.37-.74-.25-.2-.55-.33-.87-.39l-2.07-.39c-2.29-.44-3.44-1.56-3.44-3.36-.01-.97,.38-1.89,1.09-2.55,.9-.76,2.07-1.14,3.25-1.05,2.39,0,3.86,.88,4.39,2.64l-2.28,.46c-.24-.85-.91-1.28-2-1.28-1.33,0-2,.43-2,1.28,0,.59,.55,1,1.65,1.22l2.44,.51c1.68,.13,2.94,1.58,2.84,3.26,.06,1.13-.5,2.2-1.46,2.8-1.04,.64-2.25,.96-3.47,.93-1.07,.02-2.13-.22-3.08-.7-.9-.41-1.57-1.2-1.83-2.16Z"/><path d="M256.22,23.16h-2.47V13.81h-1.68v-2h1.68v-.56c-.05-.96,.24-1.9,.81-2.67,.54-.67,1.63-1,3.27-1h.91v2h-.66c-.46-.04-.92,.05-1.33,.25-.22,.13-.38,.34-.45,.59-.06,.46-.09,.93-.07,1.4h2.52v2h-2.52v9.34Z"/><path d="M264.26,23.41c-1.5,.08-2.95-.6-3.84-1.81-.89-1.21-1.36-2.68-1.33-4.19-.05-1.53,.47-3.03,1.47-4.19,.97-1.11,2.39-1.73,3.87-1.67,1.43-.04,2.8,.56,3.75,1.63,1.01,1.17,1.53,2.69,1.46,4.23,.08,1.58-.47,3.13-1.52,4.32-.98,1.1-2.39,1.72-3.86,1.68Zm.09-2.11c1.72-.01,2.58-1.31,2.58-3.89,.05-.96-.17-1.91-.62-2.75-.4-.66-1.13-1.05-1.9-1-.8-.07-1.57,.32-2,1-.46,.84-.69,1.8-.64,2.76-.06,.99,.17,1.98,.68,2.83,.4,.66,1.13,1.05,1.9,1.03v.02Z"/><path d="M273.93,23.16h-2.56V11.82h2.31v2.71c.23-.88,.7-1.68,1.36-2.31,.48-.45,1.11-.71,1.77-.73h.34v2.75c-1.04-.14-2.05,.35-2.59,1.25-.4,.74-.61,1.57-.63,2.41v5.26Z"/><path d="M102.83,43.16h-10v-15.33h9.86v2.28h-7.06v4.16h5.71v2.22h-5.71v4.29h7.2v2.38Z"/><path d="M113.87,43.16h-2.56v-7.09c.04-.61-.14-1.21-.52-1.69-.31-.36-.77-.57-1.25-.57-.69,.01-1.33,.33-1.75,.88-.55,.76-.82,1.7-.75,2.64v5.83h-2.56v-11.34h2.34v2.59c.81-1.91,1.96-2.86,3.44-2.86,.94-.02,1.86,.31,2.56,.94,.81,.9,1.19,2.11,1.06,3.31v7.36Z"/><path d="M124.93,31.82l-3.85,11.34h-2.12l-3.94-11.34h2.67l2.65,7.69,2.59-7.69h2Z"/><path d="M129.47,30.49h-2.54v-2.66h2.56l-.02,2.66Zm0,12.67h-2.54v-11.34h2.56l-.02,11.34Z"/><path d="M134.54,43.16h-2.61v-11.34h2.31v2.71c.23-.88,.7-1.68,1.36-2.31,.48-.45,1.11-.71,1.77-.73h.34v2.75c-1.04-.14-2.05,.35-2.59,1.25-.4,.74-.61,1.57-.63,2.41l.05,5.26Z"/><path d="M143.4,43.41c-1.5,.08-2.95-.6-3.84-1.81-.89-1.21-1.36-2.68-1.33-4.19-.05-1.53,.47-3.03,1.47-4.19,.97-1.11,2.39-1.73,3.87-1.67,1.43-.04,2.8,.56,3.75,1.63,1.01,1.17,1.53,2.69,1.46,4.23,.08,1.58-.47,3.13-1.52,4.32-.98,1.1-2.39,1.72-3.86,1.68Zm.09-2.11c1.72,0,2.58-1.28,2.58-3.85,.05-.96-.17-1.91-.62-2.75-.4-.66-1.13-1.05-1.9-1-.8-.07-1.57,.32-2,1-.46,.84-.69,1.8-.64,2.76-.06,.99,.17,1.98,.68,2.83,.41,.65,1.13,1.03,1.9,1h0Z"/><path d="M159.93,43.16h-2.56v-7.09c.04-.61-.14-1.21-.52-1.69-.31-.36-.77-.57-1.25-.57-.69,.01-1.33,.33-1.75,.88-.55,.76-.82,1.7-.75,2.64v5.83h-2.56v-11.34h2.39v2.59c.81-1.91,1.96-2.86,3.44-2.86,.94-.02,1.86,.31,2.56,.94,.79,.92,1.16,2.14,1,3.35v7.32Z"/><path d="M178.51,43.16h-2.68v-7.06c0-1.47-.67-2.2-2-2.2-.7-.02-1.37,.28-1.81,.83-.5,.72-.74,1.6-.68,2.48v6h-2.72v-7.11c0-1.49-.61-2.23-1.83-2.23-.73,0-1.42,.33-1.87,.9-.54,.7-.81,1.57-.76,2.45v6h-2.64v-11.4h2.48v2.41c.57-1.59,2.09-2.66,3.78-2.65,1.6-.06,2.99,1.07,3.26,2.65,.62-1.57,2.11-2.61,3.79-2.65,.98-.05,1.94,.31,2.64,1,.66,.68,1.03,1.59,1,2.54l.04,8.04Z"/><path d="M188,39.54l2.31,.31c-.29,1.02-.9,1.92-1.75,2.56-.95,.69-2.1,1.04-3.27,1-1.44,.06-2.83-.52-3.8-1.58-1.01-1.19-1.52-2.73-1.44-4.29-.06-1.55,.46-3.07,1.45-4.26,.98-1.13,2.43-1.75,3.93-1.68,1.44-.08,2.84,.54,3.75,1.66,.92,1.23,1.39,2.74,1.32,4.27v.29h-7.78c-.02,.62,.06,1.25,.22,1.85,.16,.48,.46,.9,.87,1.21,1.23,.88,2.94,.6,3.82-.62,.16-.22,.28-.45,.37-.71h0Zm-.16-3.4c.02-.74-.24-1.45-.74-2-.94-.99-2.51-1.04-3.51-.09-.01,.01-.03,.03-.04,.04-.5,.55-.79,1.26-.83,2l5.12,.05Z"/><path d="M200.72,43.16h-2.56v-7.09c.05-.61-.14-1.21-.52-1.69-.31-.37-.77-.57-1.25-.57-.69,.01-1.33,.33-1.75,.88-.55,.76-.82,1.7-.75,2.64v5.83h-2.56v-11.34h2.34v2.59c.81-1.91,1.96-2.86,3.44-2.86,.94-.02,1.86,.31,2.56,.94,.81,.9,1.19,2.11,1.06,3.31v7.36Z"/><path d="M208.47,41.16v2c-.58,.14-1.18,.23-1.78,.25-.62,.02-1.22-.12-1.77-.41-.47-.25-.85-.64-1.08-1.12-.27-.7-.38-1.45-.34-2.2v-5.87h-1.42v-2h1.56l.24-3,2.1-.19v3.14h2.28v2h-2.33v5.54c-.06,.52,.08,1.03,.39,1.45,.42,.31,.95,.45,1.47,.39l.68,.02Z"/><path d="M219.75,43.16h-2.44c-.23-.74-.36-1.51-.39-2.29-.56,1.61-2.13,2.65-3.84,2.54-1,.04-1.98-.32-2.72-1-.67-.66-1.03-1.56-1-2.5,0-2.61,2.29-3.91,6.86-3.91h.71v-.85c0-1.17-.8-1.76-2.4-1.76s-2.48,.59-2.65,1.76l-2.18-.33c.12-.95,.66-1.8,1.46-2.33,1.11-.68,2.41-1,3.71-.92,.72-.02,1.44,.06,2.14,.22,.52,.13,1,.38,1.4,.74,.35,.31,.62,.69,.79,1.13,.18,.67,.25,1.37,.22,2.07v5.12c0,.78,.11,1.56,.33,2.31Zm-2.82-5.75c-3.33,0-5,.79-5,2.37,0,.46,.17,.89,.5,1.21,.42,.36,.96,.54,1.51,.5,.84,.06,1.66-.29,2.21-.93,.51-.6,.79-1.36,.78-2.15v-1Z"/><path d="M224.08,43.16h-2.56v-15.33h2.56v15.33Z"/><path d="M236.83,43.16h-2.76v-15.33h2.76v15.33Z"/><path d="M248.87,43.16h-2.56v-7.09c.05-.61-.14-1.21-.52-1.69-.31-.37-.77-.57-1.25-.57-.69,.01-1.33,.33-1.75,.88-.55,.76-.82,1.7-.75,2.64v5.83h-2.56v-11.34h2.34v2.59c.81-1.91,1.96-2.86,3.44-2.86,.94-.02,1.86,.31,2.56,.94,.81,.9,1.19,2.11,1.06,3.31v7.36Z"/><path d="M254.22,43.16h-2.47v-9.35h-1.68v-2h1.68v-.56c-.05-.96,.24-1.9,.81-2.67,.54-.67,1.63-1,3.27-1h.91v2h-.66c-.46-.04-.92,.05-1.33,.25-.22,.13-.38,.34-.45,.59-.06,.46-.09,.93-.07,1.4h2.52v2h-2.52v9.34Z"/><path d="M262.51,43.41c-1.5,.08-2.95-.6-3.84-1.81-.89-1.21-1.35-2.69-1.32-4.19-.05-1.53,.47-3.03,1.47-4.19,.97-1.11,2.39-1.73,3.87-1.67,1.43-.04,2.8,.56,3.75,1.63,1.02,1.17,1.55,2.68,1.49,4.23,.08,1.58-.47,3.13-1.52,4.32-.99,1.11-2.41,1.73-3.9,1.68Zm.09-2.11c1.72,0,2.58-1.28,2.58-3.85,.05-.96-.17-1.91-.62-2.75-.4-.66-1.13-1.05-1.9-1-.8-.07-1.57,.32-2,1-.46,.84-.69,1.8-.64,2.76-.06,.99,.17,1.98,.68,2.83,.41,.65,1.13,1.03,1.9,1h0Z"/><path d="M272.23,43.16h-2.56v-11.34h2.26v2.71c.23-.88,.7-1.68,1.36-2.31,.48-.45,1.11-.71,1.77-.73h.34v2.75c-1.04-.14-2.05,.35-2.59,1.25-.4,.74-.61,1.57-.63,2.41l.05,5.26Z"/><path d="M293.65,43.16h-2.72v-7.06c0-1.47-.67-2.2-2-2.2-.7-.02-1.37,.28-1.81,.83-.5,.72-.74,1.6-.68,2.48v6h-2.72v-7.11c0-1.49-.61-2.23-1.83-2.23-.73,0-1.42,.33-1.87,.9-.54,.7-.81,1.57-.76,2.45v6h-2.64v-11.4h2.48v2.41c.58-1.61,2.12-2.68,3.83-2.65,1.6-.06,2.99,1.07,3.26,2.65,.62-1.57,2.11-2.61,3.79-2.65,.98-.05,1.94,.31,2.64,1,.66,.68,1.03,1.59,1,2.54l.03,8.04Z"/><path d="M304.66,43.16h-2.44c-.23-.74-.36-1.51-.39-2.29-.56,1.61-2.13,2.65-3.84,2.54-1,.04-1.98-.32-2.72-1-.67-.66-1.03-1.56-1-2.5,0-2.61,2.29-3.91,6.86-3.91h.73v-.85c0-1.17-.8-1.76-2.4-1.76s-2.48,.59-2.65,1.76l-2.18-.33c.12-.95,.66-1.8,1.46-2.33,1.11-.68,2.41-1,3.71-.92,.72-.02,1.44,.06,2.14,.22,.52,.13,1,.38,1.4,.74,.35,.31,.62,.69,.79,1.13,.18,.67,.25,1.37,.22,2.07v5.12c0,.78,.1,1.56,.31,2.31Zm-2.83-5.75c-3.33,0-5,.79-5,2.37,0,.46,.17,.89,.5,1.21,.42,.36,.96,.54,1.51,.5,.84,.06,1.66-.29,2.21-.93,.51-.6,.79-1.36,.78-2.15v-1Z"/><path d="M312.07,41.16v2c-.58,.14-1.18,.23-1.78,.25-.62,.02-1.22-.12-1.77-.41-.47-.25-.85-.64-1.08-1.12-.27-.7-.38-1.45-.34-2.2v-5.87h-1.42v-2h1.56l.24-3,2.1-.19v3.14h2.28v2h-2.28v5.54c-.06,.52,.08,1.03,.39,1.45,.42,.31,.95,.45,1.47,.39l.63,.02Z"/><path d="M316.2,30.49h-2.56v-2.66h2.56v2.66Zm0,12.67h-2.56v-11.34h2.56v11.34Z"/><path d="M323.14,43.41c-1.5,.08-2.95-.6-3.84-1.81-.91-1.21-1.39-2.68-1.37-4.19-.05-1.53,.47-3.03,1.47-4.19,.97-1.11,2.39-1.73,3.87-1.67,1.43-.04,2.8,.56,3.75,1.63,1.02,1.17,1.56,2.68,1.5,4.23,.08,1.58-.47,3.13-1.52,4.32-.98,1.1-2.39,1.72-3.86,1.68Zm.09-2.11c1.72,0,2.58-1.28,2.58-3.85,.05-.96-.17-1.91-.62-2.75-.4-.66-1.13-1.05-1.9-1-.8-.07-1.57,.32-2,1-.46,.84-.69,1.8-.64,2.76-.06,.99,.17,1.98,.68,2.83,.41,.65,1.13,1.03,1.9,1h0Z"/><path d="M339.68,43.16h-2.56v-7.09c.05-.61-.14-1.21-.52-1.69-.31-.37-.77-.57-1.25-.57-.69,.01-1.33,.33-1.75,.88-.55,.76-.82,1.7-.75,2.64v5.83h-2.56v-11.34h2.34v2.59c.81-1.91,1.96-2.86,3.44-2.86,.94-.02,1.86,.31,2.56,.94,.81,.9,1.19,2.11,1.06,3.31v7.36Z"/><path d="M98.2,60.66h-1.17l-2.53-4.25-.19-.32-.18-.31v4.88h-1v-6.67h1.33l2.33,3.93,.42,.72v-4.65h.95l.04,6.67Z"/><path d="M104.87,60.66h-1.28l-.53-1.59h-2.56l-.57,1.59h-1l2.21-6.67h1.48l2.25,6.67Zm-2.14-2.55l-1-3-1,3h2Z"/><path d="M107.47,60.66h-1.29v-5.63h-1.77v-1h4.83v1h-1.77v5.63Z"/><path d="M111.18,60.66h-1.25v-6.67h1.2l.05,6.67Z"/><path d="M115.07,60.76c-.81,.03-1.59-.34-2.07-1-.51-.72-.77-1.58-.74-2.46-.03-.88,.25-1.74,.79-2.43,.49-.65,1.27-1.02,2.08-1,.81-.02,1.57,.35,2.05,1,.52,.71,.78,1.57,.75,2.45,.04,.9-.23,1.78-.78,2.49-.51,.63-1.28,.98-2.08,.95Zm0-1c.43,0,.84-.2,1.1-.54,.36-.58,.52-1.27,.45-1.95,.03-.62-.1-1.24-.37-1.8-.22-.42-.67-.68-1.15-.65-1.03,0-1.54,.83-1.54,2.49-.04,.63,.09,1.27,.39,1.83,.22,.41,.66,.67,1.13,.66v-.04Z"/><path d="M124.06,60.66h-1.13l-2.57-4.25-.19-.32-.18-.31v4.88h-1v-6.67h1.33l2.33,3.93,.42,.72v-4.65h.95l.04,6.67Z"/><path d="M130.74,60.66h-1.28l-.53-1.59h-2.56l-.52,1.59h-1l2.21-6.67h1.48l2.2,6.67Zm-2.14-2.55l-1-3-1,3h2Z"/><path d="M135.61,60.66h-4.1v-6.67h1.26v5.58h2.84v1.09Z"/><path d="M141.25,60.76c-.81,.03-1.59-.34-2.07-1-.51-.72-.77-1.58-.74-2.46-.03-.88,.25-1.74,.79-2.43,.49-.65,1.27-1.02,2.08-1,.81-.02,1.57,.35,2.05,1,.52,.71,.78,1.57,.75,2.45,.04,.9-.23,1.78-.78,2.49-.51,.63-1.28,.98-2.08,.95Zm0-1c.43,0,.84-.2,1.1-.54,.36-.58,.52-1.27,.45-1.95,.03-.62-.1-1.24-.37-1.8-.22-.42-.67-.68-1.15-.65-1.03,0-1.54,.83-1.54,2.49-.04,.63,.09,1.27,.39,1.83,.22,.41,.66,.67,1.13,.66v-.04Z"/><path d="M148.93,58.35l1.11,.12c-.05,.62-.32,1.21-.77,1.65-.47,.44-1.1,.68-1.75,.65-.53,.02-1.06-.14-1.48-.46-.4-.33-.7-.76-.88-1.25-.21-.55-.32-1.14-.31-1.73-.04-.88,.21-1.76,.72-2.48,.88-1.1,2.47-1.27,3.57-.4,.02,.02,.05,.04,.07,.06,.47,.47,.76,1.09,.83,1.75l-1.11,.15c-.21-1.01-.66-1.51-1.36-1.51-.42,.01-.81,.25-1,.63-.28,.56-.41,1.19-.37,1.82-.04,.64,.1,1.27,.4,1.83,.22,.38,.62,.62,1.06,.62,.35,0,.68-.15,.9-.42,.24-.29,.37-.65,.37-1.03Z"/><path d="M155.38,60.66h-4.33v-6.67h4.29v1h-3.09v1.81h2.48v1h-2.48v1.87h3.13v.99Z"/><path d="M161.84,60.66h-1.28l-.53-1.59h-2.56l-.54,1.59h-1l2.21-6.67h1.48l2.22,6.67Zm-2.14-2.55l-1-3-1,3h2Z"/><path d="M167.64,60.66h-1.17l-2.54-4.25-.19-.32-.18-.31v4.88h-1v-6.67h1.37l2.33,3.93,.42,.72v-4.65h.95v6.67Z"/><path d="M170.25,60.66h-1.2v-6.67h1.2v6.67Z"/><path d="M175.43,58.35l1.11,.12c-.05,.62-.32,1.21-.77,1.65-.47,.44-1.1,.68-1.75,.65-.53,.02-1.06-.14-1.48-.46-.4-.33-.7-.76-.88-1.25-.21-.55-.32-1.14-.31-1.73-.04-.88,.21-1.76,.72-2.48,.88-1.1,2.47-1.27,3.57-.4,.02,.02,.05,.04,.07,.06,.47,.47,.76,1.09,.83,1.75l-1.11,.15c-.21-1.01-.66-1.51-1.36-1.51-.42,.01-.81,.25-1,.63-.28,.56-.41,1.19-.37,1.82-.04,.64,.1,1.27,.4,1.83,.21,.38,.62,.62,1.06,.62,.35,0,.68-.15,.9-.42,.24-.29,.37-.65,.37-1.03Z"/><path d="M185.03,60.66h-1.28l-.53-1.59h-2.56l-.52,1.59h-1l2.21-6.67h1.48l2.2,6.67Zm-2.1-2.55l-1-3-1,3h2Z"/><path d="M190.83,60.66h-1.17l-2.53-4.25-.19-.32-.18-.31v4.88h-1v-6.67h1.33l2.33,3.93,.42,.72v-4.65h.95l.04,6.67Z"/><path d="M192.23,60.66v-6.67h2.46c.85-.02,1.65,.35,2.19,1,.56,.66,.85,1.51,.83,2.38,.03,.87-.28,1.72-.85,2.37-.62,.68-1.51,1.04-2.43,1l-2.2-.08Zm1.24-1h1c.52,0,1.02-.22,1.37-.61,.41-.51,.61-1.15,.56-1.8,.02-.59-.15-1.17-.49-1.65-.29-.43-.78-.69-1.3-.68h-1.14v4.74Z"/><path d="M206.34,60.66h-1.28l-.53-1.59h-2.6l-.52,1.59h-1l2.21-6.67h1.48l2.24,6.67Zm-2.14-2.55l-1-3-1,3h2Z"/><path d="M208.93,60.66h-1.29v-5.63h-1.77v-1h4.83v1h-1.77v5.63Z"/><path d="M217.98,60.66h-1.23v-5.83l-1.82,5.83h-.63l-1.86-5.83v5.83h-1v-6.67h1.88l1.4,4.29,1.37-4.29h1.89v6.67Z"/><path d="M221.87,60.76c-.81,.03-1.59-.34-2.07-1-.51-.72-.77-1.58-.74-2.46-.03-.88,.25-1.74,.79-2.43,.49-.65,1.27-1.02,2.08-1,.81-.02,1.57,.35,2.05,1,.52,.71,.78,1.57,.75,2.45,.04,.9-.25,1.78-.8,2.49-.5,.62-1.26,.97-2.06,.95Zm0-1c.43,0,.84-.2,1.1-.54,.36-.58,.52-1.27,.45-1.95,.03-.62-.1-1.24-.37-1.8-.22-.42-.67-.68-1.15-.65-1.03,0-1.54,.83-1.54,2.49-.04,.63,.09,1.27,.39,1.83,.22,.41,.66,.67,1.13,.66v-.04Z"/><path d="M225.18,59.05l1.17-.25c.14,.67,.68,1,1.61,1,.35,.03,.7-.06,1-.25,.21-.14,.34-.38,.34-.63,0-.18-.06-.36-.16-.51-.18-.19-.41-.32-.67-.36l-1.27-.33c-.35-.07-.69-.2-1-.39-.22-.16-.39-.37-.5-.61-.13-.26-.19-.55-.19-.84-.02-.55,.23-1.08,.66-1.43,.49-.37,1.09-.57,1.7-.54,.54,0,1.07,.12,1.54,.38,.42,.22,.73,.6,.86,1.06l-1.14,.28c-.18-.51-.69-.83-1.23-.76-.3-.02-.61,.06-.86,.23-.19,.14-.3,.36-.29,.6,0,.38,.31,.65,.93,.8l1.13,.28c.53,.08,1.02,.35,1.38,.76,.23,.33,.35,.72,.35,1.12,.02,.61-.25,1.19-.74,1.55-.56,.4-1.24,.59-1.92,.56-.61,.01-1.21-.13-1.74-.42-.49-.28-.84-.75-.96-1.3Z"/><path d="M232.76,60.66h-1.2v-6.67h2.73c.63-.05,1.26,.16,1.73,.59,.76,.8,.72,2.07-.09,2.83,0,0,0,0,0,0-.42,.38-.98,.59-1.55,.57h-1.67l.05,2.68Zm0-3.67h1.42c.31,.02,.61-.07,.85-.27,.19-.19,.3-.46,.29-.73,0-.26-.09-.51-.27-.7-.28-.23-.64-.34-1-.29h-1.31l.02,1.99Z"/><path d="M242.38,60.66h-1.2v-2.9h-2.54v2.9h-1.2v-6.67h1.2v2.74h2.54v-2.74h1.2v6.67Z"/><path d="M248.13,60.66h-4.33v-6.67h4.29v1h-3.09v1.81h2.48v1h-2.48v1.87h3.13v.99Z"/><path d="M254.34,60.66h-1.27l-1-2.74h-1.69v2.74h-1.2v-6.67h2.89c.64-.05,1.27,.14,1.77,.54,.38,.37,.59,.88,.57,1.41,.05,.79-.45,1.52-1.2,1.77l1.13,2.95Zm-4-3.7h1.49c.36,.04,.71-.06,1-.27,.22-.19,.33-.46,.32-.75,0-.27-.1-.53-.31-.71-.25-.19-.56-.29-.87-.27h-1.59l-.04,2Z"/><path d="M256.71,60.66h-1.2v-6.67h1.2v6.67Z"/><path d="M261.93,58.35l1.11,.12c-.05,.62-.32,1.21-.77,1.65-.47,.44-1.1,.68-1.75,.65-.53,.02-1.06-.14-1.48-.46-.4-.33-.7-.76-.88-1.25-.21-.55-.32-1.14-.31-1.73-.04-.88,.21-1.76,.72-2.48,.88-1.1,2.47-1.27,3.57-.4,.02,.02,.05,.04,.07,.06,.47,.47,.76,1.09,.83,1.75l-1.11,.15c-.21-1.01-.66-1.51-1.36-1.51-.42,.01-.81,.25-1,.63-.28,.56-.41,1.19-.37,1.82-.04,.64,.1,1.27,.4,1.83,.21,.38,.62,.62,1.06,.62,.35,0,.68-.15,.9-.42,.24-.29,.37-.65,.37-1.03Z"/><path d="M271.48,60.66h-1.28l-.53-1.59h-2.56l-.52,1.59h-1l2.21-6.67h1.48l2.2,6.67Zm-2.14-2.55l-1-3-1,3h2Z"/><path d="M272.24,60.66v-6.67h2.46c.85-.02,1.65,.35,2.19,1,.56,.66,.85,1.51,.83,2.38,.03,.87-.28,1.72-.85,2.37-.62,.68-1.51,1.04-2.43,1l-2.2-.08Zm1.24-1h1c.52,0,1.02-.22,1.37-.61,.41-.51,.61-1.15,.56-1.8,.02-.59-.15-1.17-.49-1.65-.29-.43-.78-.69-1.3-.68h-1.14v4.74Z"/><path d="M285.3,60.66h-1.23v-5.83l-1.85,5.83h-.63l-1.86-5.83v5.83h-1v-6.67h1.88l1.4,4.29,1.37-4.29h1.89l.03,6.67Z"/><path d="M287.93,60.66h-1.2v-6.67h1.2v6.67Z"/><path d="M294.36,60.66h-1.17l-2.53-4.25-.19-.32-.18-.31v4.88h-1v-6.67h1.33l2.33,3.93,.42,.72v-4.65h.95l.04,6.67Z"/><path d="M296.93,60.66h-1.2v-6.67h1.2v6.67Z"/><path d="M297.78,59.05l1.17-.25c.14,.67,.68,1,1.61,1,.35,.03,.7-.06,1-.25,.21-.14,.34-.38,.34-.63,0-.18-.06-.36-.16-.51-.18-.19-.41-.32-.67-.36l-1.27-.33c-.35-.07-.69-.2-1-.39-.22-.16-.39-.37-.5-.61-.13-.26-.19-.55-.19-.84-.02-.55,.23-1.08,.66-1.43,.49-.37,1.09-.57,1.7-.54,.54,0,1.07,.12,1.54,.38,.42,.22,.73,.6,.86,1.06l-1.14,.28c-.18-.51-.69-.83-1.23-.76-.3-.02-.61,.06-.86,.23-.19,.14-.3,.36-.29,.6,0,.38,.31,.65,.93,.8l1.13,.28c.53,.08,1.02,.35,1.38,.76,.23,.33,.35,.72,.35,1.12,.02,.61-.25,1.19-.74,1.55-.56,.4-1.24,.59-1.92,.56-.61,.01-1.21-.13-1.74-.42-.49-.28-.84-.75-.96-1.3Z"/><path d="M306.58,60.66h-1.29v-5.63h-1.77v-1h4.83v1h-1.77v5.63Z"/><path d="M314.28,60.66h-1.27l-1-2.74h-1.69v2.74h-1.2v-6.67h2.81c.64-.05,1.27,.14,1.77,.54,.38,.37,.59,.88,.57,1.41,.05,.79-.45,1.52-1.2,1.77l1.21,2.95Zm-4-3.7h1.49c.36,.04,.71-.06,1-.27,.22-.19,.33-.46,.32-.75,0-.27-.1-.53-.31-.71-.25-.19-.56-.29-.87-.27h-1.59l-.04,2Z"/><path d="M320.84,60.66h-1.28l-.53-1.59h-2.56l-.54,1.59h-1l2.21-6.67h1.48l2.22,6.67Zm-2.14-2.55l-1-3-1,3h2Z"/><path d="M323.43,60.66h-1.29v-5.63h-1.77v-1h4.83v1h-1.77v5.63Z"/><path d="M327.14,60.66h-1.21v-6.67h1.2v6.67Z"/><path d="M331.04,60.76c-.81,.03-1.59-.34-2.07-1-.51-.72-.77-1.58-.74-2.46-.03-.88,.25-1.74,.79-2.43,.49-.65,1.27-1.02,2.08-1,.81-.02,1.57,.35,2.05,1,.52,.71,.78,1.57,.75,2.45,.04,.9-.23,1.78-.78,2.49-.51,.63-1.28,.98-2.08,.95Zm0-1c.43,0,.84-.2,1.1-.54,.36-.58,.52-1.27,.45-1.95,.03-.62-.1-1.24-.37-1.8-.22-.42-.67-.68-1.15-.65-1.03,0-1.54,.83-1.54,2.49-.04,.63,.09,1.27,.39,1.83,.22,.41,.66,.67,1.13,.66v-.04Z"/><path d="M340.02,60.66h-1.17l-2.52-4.25-.19-.32-.18-.31v4.88h-1v-6.67h1.33l2.33,3.93,.42,.72v-4.65h.95l.03,6.67Z"/></g></svg>