<?xml version="1.0" encoding="utf-8"?>
<!-- Generator: Adobe Illustrator 26.5.3, SVG Export Plug-In . SVG Version: 6.00 Build 0)  -->
<svg version="1.1" id="Layer_1" xmlns="http://www.w3.org/2000/svg" xmlns:xlink="http://www.w3.org/1999/xlink" x="0px" y="0px"
	 viewBox="0 0 340 73.3" style="enable-background:new 0 0 340 73.3;" xml:space="preserve">
<style type="text/css">
	.st0{fill:#FFFFFF;}
	.st1{fill:#007EC6;}
	.st2{fill:#263F78;}
</style>
<g>
	<circle class="st0" cx="36.5" cy="36.7" r="36.5"/>
	<path class="st1" d="M69.3,20.7c0.1,0,4.5,8.9,3.7,18.3l0,0c-0.4,15.8-14.4,33.8-35.3,34.4l-2.9-0.1C13.4,72.2-0.1,54,0,37.5l0,0
		c-0.1-3.6,0.4-7.3,1.4-10.8l1.6,0.4c5.5,2.1,11.4,18.2,30.8,19.1c0.8,0,2.5,0.1,2.4,0.1c-1.2,1.2-8.4,4.2-11.6,5c0.8-0.2-0.1,0,0,0
		l0,0c7.8,4.8,15.5-4.5,25.6-5.8l3.1-0.2c-0.6-1.9-3.2-1.7-3.5-1.7c-7,0.7-5.2-0.1-5.5,0c10.6-3.5,16.9-12,24.6-22.5L69.3,20.7z"/>
	<path class="st2" d="M53.7,4.3C48.6,1.5,42.8,0,37,0C16.1,0.1,6.8,15.4,6.8,15.4c4.6,2.3,9.5,9.1,9.5,9.2
		c5.2,7.3,12.4,18.6,21.8,18.8c3,0.1,5-1.7,7.3-3.9c8.3-8,9.4-22.9,20.1-25C62.4,10.2,58.4,6.8,53.7,4.3z"/>
	<path class="st0" d="M46.1,14.4c-1,0-1.8,0.8-1.8,1.8c0,0,0,0,0,0V24h2.1v-3.9h2V24h2.1v-7.8c0-1-0.8-1.8-1.8-1.8H46.1z"/>
	<path class="st2" d="M46.7,16h1.2c0.2,0,0.4,0.2,0.4,0.4v2h-2v-2C46.4,16.2,46.5,16,46.7,16z"/>
	<path class="st0" d="M38.2,14.4c-1,0-1.8,0.8-1.8,1.8c0,0,0,0,0,0V24h2.1v-3.9h2V24h2.1v-7.8c0-1-0.8-1.8-1.8-1.8H38.2z"/>
	<path class="st2" d="M38.9,16H40c0.2,0,0.4,0.2,0.4,0.4v2h-2v-2C38.5,16.2,38.6,16,38.9,16z"/>
	<path class="st0" d="M30.3,14.4h2.5c1,0,1.8,0.8,1.8,1.8v6c0,1-0.8,1.8-1.8,1.8h-2.5c-1,0-1.8-0.8-1.8-1.8v-6
		C28.5,15.2,29.3,14.4,30.3,14.4z"/>
	<path class="st2" d="M31,16h1.2c0.2,0,0.4,0.2,0.4,0.4v5.5c0,0.2-0.2,0.4-0.4,0.4H31c-0.2,0-0.4-0.2-0.4-0.4v-5.5
		C30.6,16.2,30.7,16,31,16z"/>
	<path class="st0" d="M20.6,14.4V24h2.1v-7.6c0-0.2,0.2-0.4,0.4-0.4h1.2c0.2,0,0.4,0.2,0.4,0.4l0,0V24h2.1v-7.8c0-1-0.8-1.7-1.8-1.7
		H20.6z"/>
</g>
<g>
	<path d="M104.4,23.2h-2.7l-5.8-9.8l-0.4-0.7L95.1,12v11.2h-2.2V7.8h3.1l5.4,9l1,1.6V7.8h2.2L104.4,23.2z"/>
	<path d="M116.8,23.2h-2.4c-0.2-0.7-0.4-1.5-0.4-2.3c-0.6,1.6-2.1,2.7-3.8,2.5c-1,0-2-0.3-2.7-1c-0.7-0.7-1-1.6-1-2.5
		c0-2.6,2.3-3.9,6.9-3.9h0.7v-0.9c0-1.2-0.8-1.8-2.4-1.8c-1.6,0-2.5,0.6-2.6,1.8l-2.2-0.3c0.1-1,0.7-1.8,1.5-2.3
		c1.1-0.7,2.4-1,3.7-0.9c0.7,0,1.4,0.1,2.2,0.2c0.5,0.1,1,0.4,1.4,0.7c0.4,0.3,0.6,0.7,0.8,1.1c0.2,0.7,0.3,1.4,0.2,2.1v5.1
		C116.5,21.6,116.6,22.4,116.8,23.2z M113.9,17.4c-3.3,0-5,0.8-5,2.4c0,0.5,0.2,0.9,0.5,1.2c0.4,0.4,1,0.5,1.5,0.5
		c0.8,0.1,1.7-0.3,2.2-0.9c0.5-0.6,0.8-1.4,0.8-2.1V17.4z"/>
	<path d="M124.2,21.2v2c-0.6,0.1-1.2,0.2-1.8,0.2c-0.6,0-1.2-0.1-1.8-0.4c-0.5-0.2-0.8-0.6-1.1-1.1c-0.3-0.7-0.4-1.5-0.3-2.2v-5.9
		h-1.4v-2h1.6l0.2-3l2.1-0.2v3.1h2.3v2h-2.3v5.5c-0.1,0.5,0.1,1,0.4,1.5c0.4,0.3,0.9,0.5,1.5,0.4L124.2,21.2z"/>
	<path d="M128.3,10.5h-2.6V7.8h2.6V10.5z M128.3,23.2h-2.6V11.8h2.6V23.2z"/>
	<path d="M135.3,23.4c-1.5,0.1-2.9-0.6-3.8-1.8c-0.9-1.2-1.4-2.7-1.3-4.2c-0.1-1.5,0.5-3,1.5-4.2c1-1.1,2.4-1.7,3.9-1.7
		c1.4,0,2.8,0.6,3.8,1.6c1,1.2,1.5,2.7,1.5,4.2c0.1,1.6-0.5,3.1-1.5,4.3C138.2,22.8,136.7,23.4,135.3,23.4z M135.4,21.3
		c1.7,0,2.6-1.3,2.6-3.9c0-1-0.2-1.9-0.6-2.8c-0.4-0.7-1.1-1-1.9-1c-0.8-0.1-1.6,0.3-2,1c-0.5,0.8-0.7,1.8-0.6,2.8
		c-0.1,1,0.2,2,0.7,2.8C133.9,20.9,134.6,21.3,135.4,21.3L135.4,21.3z"/>
	<path d="M151.8,23.2h-2.6v-7.1c0-0.6-0.1-1.2-0.5-1.7c-0.3-0.4-0.8-0.6-1.2-0.6c-0.7,0-1.3,0.3-1.8,0.9c-0.6,0.8-0.8,1.7-0.8,2.6
		v5.8h-2.6V11.8h2.3v2.6c0.8-1.9,2-2.9,3.4-2.9c0.9,0,1.9,0.3,2.6,0.9c0.8,0.9,1.2,2.1,1.1,3.3L151.8,23.2z"/>
	<path d="M164,23.2h-2.4c-0.2-0.7-0.4-1.5-0.4-2.3c-0.6,1.6-2.1,2.7-3.8,2.5c-1,0-2-0.3-2.7-1c-0.7-0.7-1-1.6-1-2.5
		c0-2.6,2.3-3.9,6.9-3.9h0.7v-0.9c0-1.2-0.8-1.8-2.4-1.8s-2.5,0.6-2.6,1.8l-2.2-0.3c0.1-1,0.7-1.8,1.5-2.3c1.1-0.7,2.4-1,3.7-0.9
		c0.7,0,1.4,0.1,2.1,0.2c0.5,0.1,1,0.4,1.4,0.7c0.4,0.3,0.6,0.7,0.8,1.1c0.2,0.7,0.3,1.4,0.2,2.1v5.1
		C163.7,21.6,163.8,22.4,164,23.2z M161.2,17.4c-3.3,0-5,0.8-5,2.4c0,0.5,0.2,0.9,0.5,1.2c0.4,0.4,1,0.5,1.5,0.5
		c0.8,0.1,1.7-0.3,2.2-0.9c0.5-0.6,0.8-1.3,0.8-2.1L161.2,17.4z"/>
	<path d="M168.4,23.2h-2.6V7.8h2.6V23.2z"/>
	<path d="M185.6,17.8l2.6,0.3c-0.1,1.4-0.8,2.8-1.8,3.8c-1.1,1-2.5,1.5-4,1.5c-1.2,0.1-2.5-0.3-3.4-1.1c-0.9-0.8-1.6-1.7-2-2.9
		c-0.5-1.3-0.7-2.6-0.7-4c-0.1-2,0.5-4,1.7-5.7c2-2.5,5.7-2.9,8.2-0.9c0,0,0.1,0.1,0.1,0.1c1.1,1.1,1.8,2.5,1.9,4l-2.6,0.3
		c-0.5-2.3-1.5-3.5-3.1-3.5c-1,0-1.9,0.5-2.4,1.4c-0.6,1.3-0.9,2.7-0.9,4.2c-0.1,1.5,0.2,2.9,0.9,4.2c0.5,0.9,1.4,1.4,2.4,1.4
		c0.8,0,1.6-0.4,2.1-1C185.2,19.4,185.5,18.7,185.6,17.8z"/>
	<path d="M196.8,19.5l2.3,0.3c-0.3,1-0.9,1.9-1.7,2.6c-0.9,0.7-2.1,1-3.3,1c-1.4,0.1-2.8-0.5-3.8-1.6c-1-1.2-1.5-2.7-1.4-4.3
		c-0.1-1.6,0.5-3.1,1.4-4.3c1-1.1,2.4-1.7,3.9-1.7c1.4-0.1,2.8,0.5,3.8,1.7c0.9,1.2,1.4,2.7,1.3,4.3v0.3h-7.8c0,0.6,0.1,1.2,0.2,1.9
		c0.2,0.5,0.5,0.9,0.9,1.2c1.2,0.9,2.9,0.6,3.8-0.6C196.7,20,196.8,19.8,196.8,19.5L196.8,19.5z M196.7,16.1c0-0.7-0.2-1.5-0.7-2
		c-0.9-1-2.5-1-3.5-0.1c0,0,0,0,0,0c-0.5,0.6-0.8,1.3-0.8,2L196.7,16.1z"/>
	<path d="M210.5,23.2h-2.6v-7.1c0-0.6-0.1-1.2-0.5-1.7c-0.3-0.4-0.8-0.6-1.2-0.6c-0.7,0-1.3,0.3-1.8,0.9c-0.6,0.8-0.8,1.7-0.8,2.6
		v5.8h-2.6V11.8h2.3v2.6c0.8-1.9,2-2.9,3.4-2.9c0.9,0,1.9,0.3,2.6,0.9c0.8,0.9,1.2,2.1,1.1,3.3L210.5,23.2z"/>
	<path d="M218.2,21.2v2c-0.6,0.1-1.2,0.2-1.8,0.2c-0.6,0-1.2-0.1-1.8-0.4c-0.5-0.2-0.8-0.6-1.1-1.1c-0.3-0.7-0.4-1.5-0.3-2.2v-5.9
		h-1.4v-2h1.6l0.2-3l2.1-0.2v3.1h2.3v2h-2.3v5.5c-0.1,0.5,0.1,1,0.4,1.5c0.4,0.3,0.9,0.5,1.5,0.4L218.2,21.2z"/>
	<path d="M226.7,19.5l2.3,0.3c-0.3,1-0.9,1.9-1.8,2.6c-0.9,0.7-2.1,1-3.3,1c-1.4,0.1-2.8-0.5-3.8-1.6c-1-1.2-1.5-2.7-1.4-4.3
		c-0.1-1.6,0.5-3.1,1.4-4.3c1-1.1,2.4-1.7,3.9-1.7c1.5-0.1,2.9,0.5,3.8,1.6c0.9,1.2,1.4,2.7,1.3,4.3v0.3h-7.8c0,0.6,0.1,1.2,0.2,1.9
		c0.2,0.5,0.5,0.9,0.9,1.2c1.2,0.9,2.9,0.6,3.8-0.6C226.5,20,226.6,19.8,226.7,19.5L226.7,19.5z M226.5,16.1c0-0.7-0.2-1.5-0.7-2
		c-0.9-1-2.5-1-3.5-0.1c0,0,0,0,0,0c-0.5,0.6-0.8,1.3-0.8,2L226.5,16.1z"/>
	<path d="M233.5,23.2h-2.6V11.8h2.3v2.7c0.2-0.9,0.7-1.7,1.4-2.3c0.5-0.4,1.1-0.7,1.8-0.7h0.3v2.8c-1-0.1-2.1,0.4-2.6,1.2
		c-0.4,0.7-0.6,1.6-0.6,2.4L233.5,23.2z"/>
	<path d="M236.9,20.5l2.4-0.5c0.4,1,1.4,1.5,2.4,1.4c1.6,0,2.4-0.5,2.4-1.4c0-0.3-0.1-0.6-0.4-0.7c-0.3-0.2-0.6-0.3-0.9-0.4
		l-2.1-0.4c-2.3-0.4-3.4-1.6-3.4-3.4c0-1,0.4-1.9,1.1-2.6c0.9-0.8,2.1-1.1,3.2-1.1c2.4,0,3.9,0.9,4.4,2.6l-2.3,0.5
		c-0.2-0.9-0.9-1.3-2-1.3c-1.3,0-2,0.4-2,1.3c0,0.6,0.5,1,1.6,1.2l2.4,0.5c1.7,0.1,2.9,1.6,2.8,3.3c0.1,1.1-0.5,2.2-1.5,2.8
		c-1,0.6-2.2,1-3.5,0.9c-1.1,0-2.1-0.2-3.1-0.7C237.9,22.3,237.2,21.5,236.9,20.5z"/>
	<path d="M256.2,23.2h-2.5v-9.4h-1.7v-2h1.7v-0.6c0-1,0.2-1.9,0.8-2.7c0.5-0.7,1.6-1,3.3-1h0.9v2h-0.7c-0.5,0-0.9,0-1.3,0.2
		c-0.2,0.1-0.4,0.3-0.5,0.6c-0.1,0.5-0.1,0.9-0.1,1.4h2.5v2h-2.5L256.2,23.2z"/>
	<path d="M264.3,23.4c-1.5,0.1-2.9-0.6-3.8-1.8c-0.9-1.2-1.4-2.7-1.3-4.2c-0.1-1.5,0.5-3,1.5-4.2c1-1.1,2.4-1.7,3.9-1.7
		c1.4,0,2.8,0.6,3.8,1.6c1,1.2,1.5,2.7,1.5,4.2c0.1,1.6-0.5,3.1-1.5,4.3C267.1,22.8,265.7,23.4,264.3,23.4z M264.3,21.3
		c1.7,0,2.6-1.3,2.6-3.9c0-1-0.2-1.9-0.6-2.8c-0.4-0.7-1.1-1-1.9-1c-0.8-0.1-1.6,0.3-2,1c-0.5,0.8-0.7,1.8-0.6,2.8
		c-0.1,1,0.2,2,0.7,2.8C262.9,20.9,263.6,21.3,264.3,21.3L264.3,21.3z"/>
	<path d="M273.9,23.2h-2.6V11.8h2.3v2.7c0.2-0.9,0.7-1.7,1.4-2.3c0.5-0.4,1.1-0.7,1.8-0.7h0.3v2.8c-1-0.1-2.1,0.4-2.6,1.2
		c-0.4,0.7-0.6,1.6-0.6,2.4L273.9,23.2z"/>
	<path d="M102.8,43.2h-10V27.8h9.9v2.3h-7.1v4.2h5.7v2.2h-5.7v4.3h7.2L102.8,43.2z"/>
	<path d="M113.9,43.2h-2.6v-7.1c0-0.6-0.1-1.2-0.5-1.7c-0.3-0.4-0.8-0.6-1.2-0.6c-0.7,0-1.3,0.3-1.8,0.9c-0.6,0.8-0.8,1.7-0.8,2.6
		v5.8h-2.6V31.8h2.3v2.6c0.8-1.9,2-2.9,3.4-2.9c0.9,0,1.9,0.3,2.6,0.9c0.8,0.9,1.2,2.1,1.1,3.3L113.9,43.2z"/>
	<path d="M124.9,31.8l-3.8,11.3H119L115,31.8h2.7l2.7,7.7l2.6-7.7H124.9z"/>
	<path d="M129.5,30.5h-2.5v-2.7h2.6L129.5,30.5z M129.5,43.2h-2.5V31.8h2.6L129.5,43.2z"/>
	<path d="M134.5,43.2h-2.6V31.8h2.3v2.7c0.2-0.9,0.7-1.7,1.4-2.3c0.5-0.4,1.1-0.7,1.8-0.7h0.3v2.8c-1-0.1-2.1,0.4-2.6,1.2
		c-0.4,0.7-0.6,1.6-0.6,2.4L134.5,43.2z"/>
	<path d="M143.4,43.4c-1.5,0.1-2.9-0.6-3.8-1.8c-0.9-1.2-1.4-2.7-1.3-4.2c-0.1-1.5,0.5-3,1.5-4.2c1-1.1,2.4-1.7,3.9-1.7
		c1.4,0,2.8,0.6,3.8,1.6c1,1.2,1.5,2.7,1.5,4.2c0.1,1.6-0.5,3.1-1.5,4.3C146.3,42.8,144.9,43.4,143.4,43.4z M143.5,41.3
		c1.7,0,2.6-1.3,2.6-3.8c0-1-0.2-1.9-0.6-2.8c-0.4-0.7-1.1-1-1.9-1c-0.8-0.1-1.6,0.3-2,1c-0.5,0.8-0.7,1.8-0.6,2.8
		c-0.1,1,0.2,2,0.7,2.8C142,40.9,142.7,41.3,143.5,41.3L143.5,41.3z"/>
	<path d="M159.9,43.2h-2.6v-7.1c0-0.6-0.1-1.2-0.5-1.7c-0.3-0.4-0.8-0.6-1.2-0.6c-0.7,0-1.3,0.3-1.8,0.9c-0.6,0.8-0.8,1.7-0.8,2.6
		v5.8h-2.6V31.8h2.4v2.6c0.8-1.9,2-2.9,3.4-2.9c0.9,0,1.9,0.3,2.6,0.9c0.8,0.9,1.2,2.1,1,3.4V43.2z"/>
	<path d="M178.5,43.2h-2.7v-7.1c0-1.5-0.7-2.2-2-2.2c-0.7,0-1.4,0.3-1.8,0.8c-0.5,0.7-0.7,1.6-0.7,2.5v6h-2.7v-7.1
		c0-1.5-0.6-2.2-1.8-2.2c-0.7,0-1.4,0.3-1.9,0.9c-0.5,0.7-0.8,1.6-0.8,2.5v6h-2.6V31.8h2.5v2.4c0.6-1.6,2.1-2.7,3.8-2.7
		c1.6-0.1,3,1.1,3.3,2.7c0.6-1.6,2.1-2.6,3.8-2.7c1,0,1.9,0.3,2.6,1c0.7,0.7,1,1.6,1,2.5L178.5,43.2z"/>
	<path d="M188,39.5l2.3,0.3c-0.3,1-0.9,1.9-1.8,2.6c-0.9,0.7-2.1,1-3.3,1c-1.4,0.1-2.8-0.5-3.8-1.6c-1-1.2-1.5-2.7-1.4-4.3
		c-0.1-1.6,0.5-3.1,1.4-4.3c1-1.1,2.4-1.7,3.9-1.7c1.4-0.1,2.8,0.5,3.8,1.7c0.9,1.2,1.4,2.7,1.3,4.3v0.3h-7.8c0,0.6,0.1,1.2,0.2,1.8
		c0.2,0.5,0.5,0.9,0.9,1.2c1.2,0.9,2.9,0.6,3.8-0.6C187.8,40,187.9,39.8,188,39.5L188,39.5z M187.8,36.2c0-0.7-0.2-1.5-0.7-2
		c-0.9-1-2.5-1-3.5-0.1c0,0,0,0,0,0c-0.5,0.6-0.8,1.3-0.8,2L187.8,36.2z"/>
	<path d="M200.7,43.2h-2.6v-7.1c0-0.6-0.1-1.2-0.5-1.7c-0.3-0.4-0.8-0.6-1.2-0.6c-0.7,0-1.3,0.3-1.8,0.9c-0.6,0.8-0.8,1.7-0.8,2.6
		v5.8h-2.6V31.8h2.3v2.6c0.8-1.9,2-2.9,3.4-2.9c0.9,0,1.9,0.3,2.6,0.9c0.8,0.9,1.2,2.1,1.1,3.3L200.7,43.2z"/>
	<path d="M208.5,41.2v2c-0.6,0.1-1.2,0.2-1.8,0.2c-0.6,0-1.2-0.1-1.8-0.4c-0.5-0.2-0.8-0.6-1.1-1.1c-0.3-0.7-0.4-1.5-0.3-2.2v-5.9
		h-1.4v-2h1.6l0.2-3l2.1-0.2v3.1h2.3v2h-2.3v5.5c-0.1,0.5,0.1,1,0.4,1.5c0.4,0.3,0.9,0.5,1.5,0.4L208.5,41.2z"/>
	<path d="M219.8,43.2h-2.4c-0.2-0.7-0.4-1.5-0.4-2.3c-0.6,1.6-2.1,2.7-3.8,2.5c-1,0-2-0.3-2.7-1c-0.7-0.7-1-1.6-1-2.5
		c0-2.6,2.3-3.9,6.9-3.9h0.7v-0.8c0-1.2-0.8-1.8-2.4-1.8c-1.6,0-2.5,0.6-2.6,1.8l-2.2-0.3c0.1-1,0.7-1.8,1.5-2.3
		c1.1-0.7,2.4-1,3.7-0.9c0.7,0,1.4,0.1,2.1,0.2c0.5,0.1,1,0.4,1.4,0.7c0.4,0.3,0.6,0.7,0.8,1.1c0.2,0.7,0.3,1.4,0.2,2.1v5.1
		C219.4,41.6,219.5,42.4,219.8,43.2z M216.9,37.4c-3.3,0-5,0.8-5,2.4c0,0.5,0.2,0.9,0.5,1.2c0.4,0.4,1,0.5,1.5,0.5
		c0.8,0.1,1.7-0.3,2.2-0.9c0.5-0.6,0.8-1.4,0.8-2.1V37.4z"/>
	<path d="M224.1,43.2h-2.6V27.8h2.6V43.2z"/>
	<path d="M236.8,43.2h-2.8V27.8h2.8V43.2z"/>
	<path d="M248.9,43.2h-2.6v-7.1c0-0.6-0.1-1.2-0.5-1.7c-0.3-0.4-0.8-0.6-1.2-0.6c-0.7,0-1.3,0.3-1.8,0.9c-0.6,0.8-0.8,1.7-0.8,2.6
		v5.8h-2.6V31.8h2.3v2.6c0.8-1.9,2-2.9,3.4-2.9c0.9,0,1.9,0.3,2.6,0.9c0.8,0.9,1.2,2.1,1.1,3.3L248.9,43.2z"/>
	<path d="M254.2,43.2h-2.5v-9.3h-1.7v-2h1.7v-0.6c0-1,0.2-1.9,0.8-2.7c0.5-0.7,1.6-1,3.3-1h0.9v2h-0.7c-0.5,0-0.9,0-1.3,0.2
		c-0.2,0.1-0.4,0.3-0.5,0.6c-0.1,0.5-0.1,0.9-0.1,1.4h2.5v2h-2.5L254.2,43.2z"/>
	<path d="M262.5,43.4c-1.5,0.1-2.9-0.6-3.8-1.8c-0.9-1.2-1.4-2.7-1.3-4.2c-0.1-1.5,0.5-3,1.5-4.2c1-1.1,2.4-1.7,3.9-1.7
		c1.4,0,2.8,0.6,3.8,1.6c1,1.2,1.5,2.7,1.5,4.2c0.1,1.6-0.5,3.1-1.5,4.3C265.4,42.8,264,43.5,262.5,43.4z M262.6,41.3
		c1.7,0,2.6-1.3,2.6-3.8c0-1-0.2-1.9-0.6-2.8c-0.4-0.7-1.1-1-1.9-1c-0.8-0.1-1.6,0.3-2,1c-0.5,0.8-0.7,1.8-0.6,2.8
		c-0.1,1,0.2,2,0.7,2.8C261.1,40.9,261.8,41.3,262.6,41.3L262.6,41.3z"/>
	<path d="M272.2,43.2h-2.6V31.8h2.3v2.7c0.2-0.9,0.7-1.7,1.4-2.3c0.5-0.4,1.1-0.7,1.8-0.7h0.3v2.8c-1-0.1-2.1,0.4-2.6,1.2
		c-0.4,0.7-0.6,1.6-0.6,2.4L272.2,43.2z"/>
	<path d="M293.6,43.2h-2.7v-7.1c0-1.5-0.7-2.2-2-2.2c-0.7,0-1.4,0.3-1.8,0.8c-0.5,0.7-0.7,1.6-0.7,2.5v6h-2.7v-7.1
		c0-1.5-0.6-2.2-1.8-2.2c-0.7,0-1.4,0.3-1.9,0.9c-0.5,0.7-0.8,1.6-0.8,2.5v6h-2.6V31.8h2.5v2.4c0.6-1.6,2.1-2.7,3.8-2.7
		c1.6-0.1,3,1.1,3.3,2.7c0.6-1.6,2.1-2.6,3.8-2.7c1,0,1.9,0.3,2.6,1c0.7,0.7,1,1.6,1,2.5L293.6,43.2z"/>
	<path d="M304.7,43.2h-2.4c-0.2-0.7-0.4-1.5-0.4-2.3c-0.6,1.6-2.1,2.7-3.8,2.5c-1,0-2-0.3-2.7-1c-0.7-0.7-1-1.6-1-2.5
		c0-2.6,2.3-3.9,6.9-3.9h0.7v-0.8c0-1.2-0.8-1.8-2.4-1.8c-1.6,0-2.5,0.6-2.6,1.8l-2.2-0.3c0.1-1,0.7-1.8,1.5-2.3
		c1.1-0.7,2.4-1,3.7-0.9c0.7,0,1.4,0.1,2.1,0.2c0.5,0.1,1,0.4,1.4,0.7c0.4,0.3,0.6,0.7,0.8,1.1c0.2,0.7,0.3,1.4,0.2,2.1v5.1
		C304.3,41.6,304.4,42.4,304.7,43.2z M301.8,37.4c-3.3,0-5,0.8-5,2.4c0,0.5,0.2,0.9,0.5,1.2c0.4,0.4,1,0.5,1.5,0.5
		c0.8,0.1,1.7-0.3,2.2-0.9c0.5-0.6,0.8-1.4,0.8-2.1V37.4z"/>
	<path d="M312.1,41.2v2c-0.6,0.1-1.2,0.2-1.8,0.2c-0.6,0-1.2-0.1-1.8-0.4c-0.5-0.2-0.8-0.6-1.1-1.1c-0.3-0.7-0.4-1.5-0.3-2.2v-5.9
		h-1.4v-2h1.6l0.2-3l2.1-0.2v3.1h2.3v2h-2.3v5.5c-0.1,0.5,0.1,1,0.4,1.5c0.4,0.3,0.9,0.5,1.5,0.4L312.1,41.2z"/>
	<path d="M316.2,30.5h-2.6v-2.7h2.6V30.5z M316.2,43.2h-2.6V31.8h2.6V43.2z"/>
	<path d="M323.1,43.4c-1.5,0.1-2.9-0.6-3.8-1.8c-0.9-1.2-1.4-2.7-1.4-4.2c-0.1-1.5,0.5-3,1.5-4.2c1-1.1,2.4-1.7,3.9-1.7
		c1.4,0,2.8,0.6,3.8,1.6c1,1.2,1.6,2.7,1.5,4.2c0.1,1.6-0.5,3.1-1.5,4.3C326,42.8,324.6,43.4,323.1,43.4z M323.2,41.3
		c1.7,0,2.6-1.3,2.6-3.8c0-1-0.2-1.9-0.6-2.8c-0.4-0.7-1.1-1-1.9-1c-0.8-0.1-1.6,0.3-2,1c-0.5,0.8-0.7,1.8-0.6,2.8
		c-0.1,1,0.2,2,0.7,2.8C321.7,40.9,322.5,41.3,323.2,41.3L323.2,41.3z"/>
	<path d="M339.7,43.2h-2.6v-7.1c0-0.6-0.1-1.2-0.5-1.7c-0.3-0.4-0.8-0.6-1.2-0.6c-0.7,0-1.3,0.3-1.8,0.9c-0.6,0.8-0.8,1.7-0.8,2.6
		v5.8h-2.6V31.8h2.3v2.6c0.8-1.9,2-2.9,3.4-2.9c0.9,0,1.9,0.3,2.6,0.9c0.8,0.9,1.2,2.1,1.1,3.3L339.7,43.2z"/>
	<path d="M98.2,60.7H97l-2.5-4.2l-0.2-0.3l-0.2-0.3v4.9h-1V54h1.3l2.3,3.9l0.4,0.7V54h0.9L98.2,60.7z"/>
	<path d="M104.9,60.7h-1.3l-0.5-1.6h-2.6l-0.6,1.6h-1l2.2-6.7h1.5L104.9,60.7z M102.7,58.1l-1-3l-1,3H102.7z"/>
	<path d="M107.5,60.7h-1.3V55h-1.8v-1h4.8v1h-1.8L107.5,60.7z"/>
	<path d="M111.2,60.7h-1.2V54h1.2L111.2,60.7z"/>
	<path d="M115.1,60.8c-0.8,0-1.6-0.3-2.1-1c-0.5-0.7-0.8-1.6-0.7-2.5c0-0.9,0.3-1.7,0.8-2.4c0.5-0.6,1.3-1,2.1-1
		c0.8,0,1.6,0.3,2.1,1c0.5,0.7,0.8,1.6,0.8,2.5c0,0.9-0.2,1.8-0.8,2.5C116.6,60.4,115.9,60.8,115.1,60.8z M115.1,59.8
		c0.4,0,0.8-0.2,1.1-0.5c0.4-0.6,0.5-1.3,0.4-2c0-0.6-0.1-1.2-0.4-1.8c-0.2-0.4-0.7-0.7-1.2-0.7c-1,0-1.5,0.8-1.5,2.5
		c0,0.6,0.1,1.3,0.4,1.8C114.2,59.6,114.6,59.8,115.1,59.8L115.1,59.8z"/>
	<path d="M124.1,60.7h-1.1l-2.6-4.2l-0.2-0.3l-0.2-0.3v4.9h-1V54h1.3l2.3,3.9l0.4,0.7V54h0.9L124.1,60.7z"/>
	<path d="M130.7,60.7h-1.3l-0.5-1.6h-2.6l-0.5,1.6h-1l2.2-6.7h1.5L130.7,60.7z M128.6,58.1l-1-3l-1,3H128.6z"/>
	<path d="M135.6,60.7h-4.1V54h1.3v5.6h2.8L135.6,60.7z"/>
	<path d="M141.2,60.8c-0.8,0-1.6-0.3-2.1-1c-0.5-0.7-0.8-1.6-0.7-2.5c0-0.9,0.3-1.7,0.8-2.4c0.5-0.6,1.3-1,2.1-1
		c0.8,0,1.6,0.3,2.1,1c0.5,0.7,0.8,1.6,0.8,2.5c0,0.9-0.2,1.8-0.8,2.5C142.8,60.4,142.1,60.8,141.2,60.8z M141.2,59.8
		c0.4,0,0.8-0.2,1.1-0.5c0.4-0.6,0.5-1.3,0.4-2c0-0.6-0.1-1.2-0.4-1.8c-0.2-0.4-0.7-0.7-1.1-0.7c-1,0-1.5,0.8-1.5,2.5
		c0,0.6,0.1,1.3,0.4,1.8C140.4,59.6,140.8,59.8,141.2,59.8L141.2,59.8z"/>
	<path d="M148.9,58.3l1.1,0.1c0,0.6-0.3,1.2-0.8,1.7c-0.5,0.4-1.1,0.7-1.8,0.7c-0.5,0-1.1-0.1-1.5-0.5c-0.4-0.3-0.7-0.8-0.9-1.2
		c-0.2-0.6-0.3-1.1-0.3-1.7c0-0.9,0.2-1.8,0.7-2.5c0.9-1.1,2.5-1.3,3.6-0.4c0,0,0,0,0.1,0.1c0.5,0.5,0.8,1.1,0.8,1.8l-1.1,0.1
		c-0.2-1-0.7-1.5-1.4-1.5c-0.4,0-0.8,0.3-1,0.6c-0.3,0.6-0.4,1.2-0.4,1.8c0,0.6,0.1,1.3,0.4,1.8c0.2,0.4,0.6,0.6,1.1,0.6
		c0.3,0,0.7-0.2,0.9-0.4C148.8,59.1,148.9,58.7,148.9,58.3z"/>
	<path d="M155.4,60.7H151V54h4.3v1h-3.1v1.8h2.5v1h-2.5v1.9h3.1V60.7z"/>
	<path d="M161.8,60.7h-1.3l-0.5-1.6h-2.6l-0.5,1.6h-1l2.2-6.7h1.5L161.8,60.7z M159.7,58.1l-1-3l-1,3H159.7z"/>
	<path d="M167.6,60.7h-1.2l-2.5-4.2l-0.2-0.3l-0.2-0.3v4.9h-1V54h1.4l2.3,3.9l0.4,0.7V54h0.9L167.6,60.7z"/>
	<path d="M170.2,60.7h-1.2V54h1.2V60.7z"/>
	<path d="M175.4,58.3l1.1,0.1c0,0.6-0.3,1.2-0.8,1.7c-0.5,0.4-1.1,0.7-1.8,0.7c-0.5,0-1.1-0.1-1.5-0.5c-0.4-0.3-0.7-0.8-0.9-1.2
		c-0.2-0.6-0.3-1.1-0.3-1.7c0-0.9,0.2-1.8,0.7-2.5c0.9-1.1,2.5-1.3,3.6-0.4c0,0,0,0,0.1,0.1c0.5,0.5,0.8,1.1,0.8,1.8l-1.1,0.1
		c-0.2-1-0.7-1.5-1.4-1.5c-0.4,0-0.8,0.3-1,0.6c-0.3,0.6-0.4,1.2-0.4,1.8c0,0.6,0.1,1.3,0.4,1.8c0.2,0.4,0.6,0.6,1.1,0.6
		c0.3,0,0.7-0.2,0.9-0.4C175.3,59.1,175.4,58.7,175.4,58.3z"/>
	<path d="M185,60.7h-1.3l-0.5-1.6h-2.6l-0.5,1.6h-1l2.2-6.7h1.5L185,60.7z M182.9,58.1l-1-3l-1,3H182.9z"/>
	<path d="M190.8,60.7h-1.2l-2.5-4.2l-0.2-0.3l-0.2-0.3v4.9h-1V54h1.3l2.3,3.9l0.4,0.7V54h0.9L190.8,60.7z"/>
	<path d="M192.2,60.7V54h2.5c0.8,0,1.7,0.3,2.2,1c0.6,0.7,0.9,1.5,0.8,2.4c0,0.9-0.3,1.7-0.9,2.4c-0.6,0.7-1.5,1-2.4,1L192.2,60.7z
		 M193.5,59.7h1c0.5,0,1-0.2,1.4-0.6c0.4-0.5,0.6-1.2,0.6-1.8c0-0.6-0.2-1.2-0.5-1.7c-0.3-0.4-0.8-0.7-1.3-0.7h-1.1L193.5,59.7z"/>
	<path d="M206.3,60.7h-1.3l-0.5-1.6h-2.6l-0.5,1.6h-1l2.2-6.7h1.5L206.3,60.7z M204.2,58.1l-1-3l-1,3H204.2z"/>
	<path d="M208.9,60.7h-1.3V55h-1.8v-1h4.8v1h-1.8V60.7z"/>
	<path d="M218,60.7h-1.2v-5.8l-1.8,5.8h-0.6l-1.9-5.8v5.8h-1V54h1.9l1.4,4.3l1.4-4.3h1.9L218,60.7z"/>
	<path d="M221.9,60.8c-0.8,0-1.6-0.3-2.1-1c-0.5-0.7-0.8-1.6-0.7-2.5c0-0.9,0.3-1.7,0.8-2.4c0.5-0.6,1.3-1,2.1-1
		c0.8,0,1.6,0.3,2.1,1c0.5,0.7,0.8,1.6,0.8,2.5c0,0.9-0.2,1.8-0.8,2.5C223.4,60.4,222.7,60.8,221.9,60.8z M221.9,59.8
		c0.4,0,0.8-0.2,1.1-0.5c0.4-0.6,0.5-1.3,0.4-2c0-0.6-0.1-1.2-0.4-1.8c-0.2-0.4-0.7-0.7-1.1-0.7c-1,0-1.5,0.8-1.5,2.5
		c0,0.6,0.1,1.3,0.4,1.8C221,59.6,221.4,59.8,221.9,59.8L221.9,59.8z"/>
	<path d="M225.2,59l1.2-0.2c0.1,0.7,0.7,1,1.6,1c0.4,0,0.7-0.1,1-0.2c0.2-0.1,0.3-0.4,0.3-0.6c0-0.2-0.1-0.4-0.2-0.5
		c-0.2-0.2-0.4-0.3-0.7-0.4l-1.3-0.3c-0.4-0.1-0.7-0.2-1-0.4c-0.2-0.2-0.4-0.4-0.5-0.6c-0.1-0.3-0.2-0.5-0.2-0.8
		c0-0.6,0.2-1.1,0.7-1.4c0.5-0.4,1.1-0.6,1.7-0.5c0.5,0,1.1,0.1,1.5,0.4c0.4,0.2,0.7,0.6,0.9,1.1l-1.1,0.3c-0.2-0.5-0.7-0.8-1.2-0.8
		c-0.3,0-0.6,0.1-0.9,0.2c-0.2,0.1-0.3,0.4-0.3,0.6c0,0.4,0.3,0.6,0.9,0.8l1.1,0.3c0.5,0.1,1,0.4,1.4,0.8c0.2,0.3,0.4,0.7,0.4,1.1
		c0,0.6-0.3,1.2-0.7,1.5c-0.6,0.4-1.2,0.6-1.9,0.6c-0.6,0-1.2-0.1-1.7-0.4C225.7,60.1,225.3,59.6,225.2,59z"/>
	<path d="M232.8,60.7h-1.2V54h2.7c0.6-0.1,1.3,0.2,1.7,0.6c0.8,0.8,0.7,2.1-0.1,2.8c0,0,0,0,0,0c-0.4,0.4-1,0.6-1.6,0.6h-1.7
		L232.8,60.7z M232.8,57h1.4c0.3,0,0.6-0.1,0.9-0.3c0.2-0.2,0.3-0.5,0.3-0.7c0-0.3-0.1-0.5-0.3-0.7c-0.3-0.2-0.6-0.3-1-0.3h-1.3
		L232.8,57z"/>
	<path d="M242.4,60.7h-1.2v-2.9h-2.5v2.9h-1.2V54h1.2v2.7h2.5V54h1.2V60.7z"/>
	<path d="M248.1,60.7h-4.3V54h4.3v1H245v1.8h2.5v1H245v1.9h3.1V60.7z"/>
	<path d="M254.3,60.7h-1.3l-1-2.7h-1.7v2.7h-1.2V54h2.9c0.6-0.1,1.3,0.1,1.8,0.5c0.4,0.4,0.6,0.9,0.6,1.4c0,0.8-0.4,1.5-1.2,1.8
		L254.3,60.7z M250.3,57h1.5c0.4,0,0.7-0.1,1-0.3c0.2-0.2,0.3-0.5,0.3-0.8c0-0.3-0.1-0.5-0.3-0.7c-0.2-0.2-0.6-0.3-0.9-0.3h-1.6
		L250.3,57z"/>
	<path d="M256.7,60.7h-1.2V54h1.2V60.7z"/>
	<path d="M261.9,58.3l1.1,0.1c0,0.6-0.3,1.2-0.8,1.7c-0.5,0.4-1.1,0.7-1.8,0.7c-0.5,0-1.1-0.1-1.5-0.5c-0.4-0.3-0.7-0.8-0.9-1.2
		c-0.2-0.6-0.3-1.1-0.3-1.7c0-0.9,0.2-1.8,0.7-2.5c0.9-1.1,2.5-1.3,3.6-0.4c0,0,0,0,0.1,0.1c0.5,0.5,0.8,1.1,0.8,1.8l-1.1,0.1
		c-0.2-1-0.7-1.5-1.4-1.5c-0.4,0-0.8,0.3-1,0.6c-0.3,0.6-0.4,1.2-0.4,1.8c0,0.6,0.1,1.3,0.4,1.8c0.2,0.4,0.6,0.6,1.1,0.6
		c0.3,0,0.7-0.2,0.9-0.4C261.8,59.1,261.9,58.7,261.9,58.3z"/>
	<path d="M271.5,60.7h-1.3l-0.5-1.6h-2.6l-0.5,1.6h-1l2.2-6.7h1.5L271.5,60.7z M269.3,58.1l-1-3l-1,3H269.3z"/>
	<path d="M272.2,60.7V54h2.5c0.8,0,1.7,0.3,2.2,1c0.6,0.7,0.9,1.5,0.8,2.4c0,0.9-0.3,1.7-0.9,2.4c-0.6,0.7-1.5,1-2.4,1L272.2,60.7z
		 M273.5,59.7h1c0.5,0,1-0.2,1.4-0.6c0.4-0.5,0.6-1.2,0.6-1.8c0-0.6-0.2-1.2-0.5-1.7c-0.3-0.4-0.8-0.7-1.3-0.7h-1.1V59.7z"/>
	<path d="M285.3,60.7h-1.2v-5.8l-1.9,5.8h-0.6l-1.9-5.8v5.8h-1V54h1.9l1.4,4.3l1.4-4.3h1.9L285.3,60.7z"/>
	<path d="M287.9,60.7h-1.2V54h1.2V60.7z"/>
	<path d="M294.4,60.7h-1.2l-2.5-4.2l-0.2-0.3l-0.2-0.3v4.9h-1V54h1.3l2.3,3.9l0.4,0.7V54h1L294.4,60.7z"/>
	<path d="M296.9,60.7h-1.2V54h1.2V60.7z"/>
	<path d="M297.8,59l1.2-0.2c0.1,0.7,0.7,1,1.6,1c0.4,0,0.7-0.1,1-0.2c0.2-0.1,0.3-0.4,0.3-0.6c0-0.2-0.1-0.4-0.2-0.5
		c-0.2-0.2-0.4-0.3-0.7-0.4l-1.3-0.3c-0.4-0.1-0.7-0.2-1-0.4c-0.2-0.2-0.4-0.4-0.5-0.6c-0.1-0.3-0.2-0.5-0.2-0.8
		c0-0.6,0.2-1.1,0.7-1.4c0.5-0.4,1.1-0.6,1.7-0.5c0.5,0,1.1,0.1,1.5,0.4c0.4,0.2,0.7,0.6,0.9,1.1l-1.1,0.3c-0.2-0.5-0.7-0.8-1.2-0.8
		c-0.3,0-0.6,0.1-0.9,0.2c-0.2,0.1-0.3,0.4-0.3,0.6c0,0.4,0.3,0.6,0.9,0.8l1.1,0.3c0.5,0.1,1,0.4,1.4,0.8c0.2,0.3,0.4,0.7,0.4,1.1
		c0,0.6-0.3,1.2-0.7,1.5c-0.6,0.4-1.2,0.6-1.9,0.6c-0.6,0-1.2-0.1-1.7-0.4C298.3,60.1,297.9,59.6,297.8,59z"/>
	<path d="M306.6,60.7h-1.3V55h-1.8v-1h4.8v1h-1.8V60.7z"/>
	<path d="M314.3,60.7H313l-1-2.7h-1.7v2.7h-1.2V54h2.8c0.6-0.1,1.3,0.1,1.8,0.5c0.4,0.4,0.6,0.9,0.6,1.4c0,0.8-0.4,1.5-1.2,1.8
		L314.3,60.7z M310.3,57h1.5c0.4,0,0.7-0.1,1-0.3c0.2-0.2,0.3-0.5,0.3-0.8c0-0.3-0.1-0.5-0.3-0.7c-0.2-0.2-0.6-0.3-0.9-0.3h-1.6
		L310.3,57z"/>
	<path d="M320.8,60.7h-1.3l-0.5-1.6h-2.6l-0.5,1.6h-1l2.2-6.7h1.5L320.8,60.7z M318.7,58.1l-1-3l-1,3H318.7z"/>
	<path d="M323.4,60.7h-1.3V55h-1.8v-1h4.8v1h-1.8V60.7z"/>
	<path d="M327.1,60.7h-1.2V54h1.2L327.1,60.7z"/>
	<path d="M331,60.8c-0.8,0-1.6-0.3-2.1-1c-0.5-0.7-0.8-1.6-0.7-2.5c0-0.9,0.3-1.7,0.8-2.4c0.5-0.6,1.3-1,2.1-1c0.8,0,1.6,0.3,2,1
		c0.5,0.7,0.8,1.6,0.8,2.5c0,0.9-0.2,1.8-0.8,2.5C332.6,60.4,331.8,60.8,331,60.8z M331,59.8c0.4,0,0.8-0.2,1.1-0.5
		c0.4-0.6,0.5-1.3,0.5-2c0-0.6-0.1-1.2-0.4-1.8c-0.2-0.4-0.7-0.7-1.1-0.7c-1,0-1.5,0.8-1.5,2.5c0,0.6,0.1,1.3,0.4,1.8
		C330.1,59.6,330.6,59.8,331,59.8L331,59.8z"/>
	<path d="M340,60.7h-1.2l-2.5-4.2l-0.2-0.3l-0.2-0.3v4.9h-1V54h1.3l2.3,3.9l0.4,0.7V54h1L340,60.7z"/>
</g>
</svg>
